<?xml version="1.0" encoding="UTF-8" standalone="no"?>
<svg
   width="1500"
   height="1500"
   version="1.1"
   id="svg4"
   xmlns:inkscape="http://www.inkscape.org/namespaces/inkscape"
   xmlns:sodipodi="http://sodipodi.sourceforge.net/DTD/sodipodi-0.dtd"
   xmlns="http://www.w3.org/2000/svg"
   xmlns:svg="http://www.w3.org/2000/svg">
  <sodipodi:namedview
     id="namedview4"
     pagecolor="#ffffff"
     bordercolor="#000000"
     borderopacity="0.25"
     inkscape:showpageshadow="2"
     inkscape:pageopacity="0.0"
     inkscape:pagecheckerboard="0"
     inkscape:deskcolor="#d1d1d1" />
  <defs
     id="defs1" />
  <g
     transform="translate(0, 628.0651512439592) scale(0.609674243780204)"
     id="g4">
    <g
       transform="translate(0, 0) scale(1 1) rotate(0)"
       fill="#4f46e5"
       id="g2">
      <svg
         width="364.0"
         height="400.0"
         viewBox="0 0 364 400"
         version="1.1"
         id="svg1">
        <g
           stroke="none"
           class="c1"
           id="g1">
          <path
             d="M 0.20686227456400275,27.76299879081006 C 0.690538211686146,58.52478839177746 1.561154898506004,64.61910519951624 7.655471706244782,79.80652962515114 C 26.905774003705517,128.27085852478837 71.40396021894134,148.48851269649333 124.89851886464868,132.91414752116077 C 131.08957085981194,131.07617896009674 137.0871524801263,129.6251511487303 138.05450435437058,129.6251511487303 C 139.89247291543467,129.6251511487303 139.9892081028591,130.7859733978234 140.08594329028352,178.9600967351874 C 140.27941366513238,225.58645707376064 140.1826784777079,228.39177750906885 138.53818029149267,229.06892382103985 C 137.57082841724844,229.45586457073767 128.28425042450363,229.74607013301085 117.93358537009004,229.74607013301085 C 91.23467364094859,229.64933494558642 75.46683809076717,226.55380894800481 56.31327098073092,217.65417170495772 C 45.76913555146854,212.72067714631197 33.773972310839724,204.78839177750905 26.131892504310088,197.72672309552598 C 18.876753447478166,191.05199516324063 6.784855019424981,176.83192261185002 3.592593834418949,171.22128174123333 C -0.8572247871045988,163.48246674727932 -0.8572247871045988,167.15840386940744 3.3991234595700917,183.70012091898423 C 7.752206893669211,200.72551390568316 16.84531451156522,218.91172914147518 28.840477752194033,234.77629987908102 C 38.32052611978776,247.3518742442564 37.54664462039233,246.86819830713426 52.92753942087597,247.93228536880287 C 68.88884534590625,248.89963724304715 96.65184413671636,247.44860943168072 112.61315006174658,244.74002418379683 C 135.63612466875992,240.77388149939537 159.43298077516863,234.09915356711002 185.16454063006586,224.4256348246675 C 213.21774498314926,213.7847642079807 221.73044147649875,209.8186215235791 222.50432297589418,207.0133010882708 C 222.89126372559178,205.6590084643288 223.18146928786518,187.76299879081006 223.2782044752895,167.061668681983 C 223.37493966271393,146.45707376058039 223.76188041241164,129.6251511487303 224.14882116210947,129.6251511487303 C 224.6324970992316,129.6251511487303 227.3410823471154,130.39903264812568 230.24313796984825,131.4631197097944 C 244.65668089608755,136.39661426844015 253.26611257686147,137.75090689238203 269.8078296264383,137.75090689238203 C 287.2201633628349,137.75090689238203 293.7014209202714,136.49334945586457 307.6312879093887,130.5925030229746 C 325.7207679577564,122.95042321644496 342.1657498199087,106.40870616686817 351.64579818750235,86.57799274486092 C 358.03032055751453,73.13180169286568 360.54543543054956,63.07134220072544 361.7062576796426,46.62636033857308 C 363.0605503035847,26.892382103990258 362.9638151161603,0.0 361.6095224922183,0.0 C 361.0291113676717,0.0 356.9662334958458,2.12817412333726 352.61315006174664,4.740024183796834 C 327.5587365188204,19.927448609431565 306.2769952854468,26.408706166868114 258.1996071355072,33.37363966142681 C 217.0871524801263,39.37122128174116 204.70504848979988,43.724304715840276 192.61315006174664,56.49334945586452 C 189.03394812704283,60.26602176541712 185.06780544264137,65.48972188633604 183.90698319354834,68.00483675937113 C 182.7461609444552,70.51995163240622 181.39186832051325,72.55139056831922 181.0049275708156,72.55139056831922 C 180.52125163369345,72.55139056831922 179.55389975944917,71.10036275695279 178.6832830726293,69.35912938331307 C 174.0399940762569,59.68561064087055 161.561154898506,49.04474002418368 148.59863978363296,43.62756952841585 C 137.66756360467286,39.177750906892356 127.99404486223034,36.9528415961305 102.45595538218191,33.37363966142681 C 51.960187546631744,26.215235792019257 31.258857437804693,19.927448609431565 8.332618018215783,4.933494558645577 C 4.173004958965521,2.2249093107617455 0.5938030242617742,0.0 0.30359746198848825,0.0 C -0.08334328770928323,0.0 -0.08334328770928323,12.478839177750842 0.20686227456400275,27.76299879081006 M 100.03757569657125,95.18742442563479 C 109.22741850189169,97.60580411124545 116.38582237129924,102.055622732769 123.15728549100902,109.50423216444972 C 126.73648742571277,113.37363966142675 129.4450726735967,117.24304715840378 129.34833748617223,118.01692865779927 C 129.15486711132343,119.08101571946798 126.92995780056162,119.66142684401444 121.51278730479379,120.33857315598544 C 112.70988524917107,121.40266021765416 99.74737013429802,119.56469165659007 90.65426251640201,116.17896009673518 C 84.17300495896546,113.6638452237001 65.40637859862693,100.79806529625142 64.92270266150479,98.57315598548968 C 64.24555634953379,94.70374848851264 89.39670507988444,92.28536880290198 100.03757569657125,95.18742442563479 M 290.12221898556766,95.86457073760579 C 291.9601875466318,96.44498186215225 293.8948912951204,97.41233373639653 294.3785672322425,97.7992744860943 C 297.0871524801263,100.21765417170496 278.3205261197878,113.18016928657795 265.5514813797636,117.62998790810155 C 259.07022382232697,119.95163240628779 248.52608839306458,121.11245465538082 239.6264511500175,120.43530834340987 C 229.46925647045282,119.66142684401444 229.17905090817953,118.88754534461907 235.07989734106945,111.72914147521158 C 242.52850677275035,102.63603385731562 252.49223107746616,97.02539298669882 264.5841295055193,94.80048367593707 C 270.58171112583375,93.73639661426841 285.67240036404417,94.31680773881499 290.12221898556766,95.86457073760579"
             id="i1" />
          <path
             d="M 355.70867605932835,154.09915356710997 C 324.1730049589655,180.60459492140257 267.00250919113,216.68681983071343 225.3096434112025,236.32406287787177 C 178.39307751035602,258.47642079806536 117.74011499524119,273.6638452237001 76.14398440273817,273.7605804111245 C 71.98437134348785,273.7605804111245 68.59863978363296,274.14752116082224 68.59863978363296,274.6311970979444 C 68.59863978363296,276.1789600967351 81.27094933623272,286.23941958887536 90.36405695412873,291.8500604594922 C 102.16574981990868,299.20193470374846 113.19356118629321,304.32889963724296 127.60710411253257,308.9721886336154 L 139.6990025405858,312.9383313180169 L 139.6990025405858,356.4691656590084 L 139.6990025405858,399.99999999999994 L 180.81145719596668,399.99999999999994 L 221.9239118513476,399.99999999999994 L 222.40758778846975,356.95284159613055 C 222.69779335074304,333.2527206771463 223.2782044752895,313.3252720677146 223.66514522498733,312.6481257557437 C 224.14882116210947,312.067714631197 225.01943784892921,311.48730350665056 225.6965841609001,311.48730350665056 C 228.50190459620853,311.48730350665056 251.81508476549504,303.1680773881499 260.8114571959667,298.9117291414752 C 311.6941657812147,274.92140266021767 352.70988524917107,221.81378476420792 361.6095224922183,168.415961305925 C 363.83443180298,155.4534461910519 364.1246373652533,148.97218863361547 362.7703447413113,148.97218863361547 C 362.18993361676473,148.97218863361547 359.09440761918324,151.29383313180165 355.70867605932835,154.09915356710997"
             id="i2" />
        </g>
      </svg>
    </g>
    <g
       transform="translate(446.38532110091745, 354.1284403669725) rotate(0)"
       id="g3">
      <path
         d="m 36.15,-13.5 q 18,0 18,-14.4 0,-7.5 -7.95,-11.1 -4.2,-2.1 -10.95,-3.9 -6.6,-1.8 -11.1,-3.6 -4.35,-1.95 -8.85,-5.25 -8.85,-6.6 -8.85,-20.25 0,-13.8 9.45,-21.6 9.6,-7.95 24.9,-7.95 15.45,0 28.65,6.15 v 22.5 l -15.3,1.05 v -8.7 q 0,-2.25 -0.6,-3.3 -1.65,-2.85 -10.65,-2.85 -8.85,0 -13.2,3.15 -4.2,3.15 -4.2,9.75 0,4.8 3.6,8.4 2.4,2.4 7.05,4.05 4.8,1.5 10.05,3.15 5.4,1.65 9.45,3.6 4.2,1.95 8.7,5.4 9.15,6.75 9.15,20.85 0,14.1 -10.2,22.2 -10.05,8.1 -26.7,8.1 -16.5,0 -29.7,-6.15 v -23.7 l 15.3,-1.05 v 9.15 q 0,2.25 0.6,3.3 0.6,1.05 3.6,2.1 3.15,0.9 9.75,0.9 z m 56.249904,-3.3 v -73.05 q 0,-2.4 -0.9,-3.3 -0.75,-0.9 -2.85,-1.05 l -5.25,-0.3 v -12.45 H 110.0999 v 40.35 q 7.8,-11.1 21.9,-11.1 11.4,0 17.55,6.6 6.3,6.45 6.3,19.5 v 39.15 l 8.55,0.45 V 0 h -35.7 v -11.4 l 4.95,-0.45 q 2.25,-0.3 3.3,-1.2 1.05,-1.05 1.05,-3.75 v -30.9 q 0,-7.8 -2.55,-12 -2.4,-4.2 -9.6,-4.2 -7.05,0 -11.4,4.5 -4.2,4.35 -4.2,10.65 v 36.3 l 8.55,0.45 V 0 H 83.099904 v -11.4 l 4.95,-0.45 q 2.25,-0.3 3.3,-1.2 1.05,-1.05 1.05,-3.75 z M 240.59996,-72.45 v 55.8 q 0,2.4 0.75,3.3 0.9,0.9 3,1.05 l 4.8,0.3 V 0 h -23.85 v -8.7 l -0.45,-0.15 q -7.5,10.8 -20.55,10.8 -15.3,0 -22.65,-9.75 -7.35,-9.75 -7.35,-26.7 0,-20.4 9.9,-31.8 9.9,-11.4 29.7,-11.4 12.75,0 26.7,5.25 z m -17.4,48.6 V -62.7 q -4.2,-1.95 -11.55,-1.95 -10.05,0 -14.55,8.1 -4.5,8.1 -4.5,21.45 0,24.3 15.6,24.3 6.6,0 10.8,-3.9 4.2,-4.05 4.2,-9.15 z m 44.39992,7.05 v -41.55 q 0,-2.4 -0.9,-3.3 -0.75,-1.05 -2.85,-1.2 l -6.3,-0.45 v -12.15 h 25.35 v 11.25 q 2.7,-5.85 8.4,-9.6 5.7,-3.9 13.05,-3.9 7.5,0 14.25,3.3 v 22.35 l -13.95,1.05 v -6.9 q 0,-3 -1.5,-3.75 -1.65,-0.75 -4.05,-0.75 -6,0 -9.9,4.35 -3.75,4.2 -3.75,10.8 v 34.8 l 13.05,0.6 V 0 h -40.2 v -11.4 l 4.95,-0.45 q 2.25,-0.3 3.3,-1.2 1.05,-1.05 1.05,-3.75 z m 97.64999,-60.9 q 11.25,0 17.85,5.55 6.6,5.4 6.6,15.3 0,6.6 -2.85,11.7 -2.85,4.95 -7.05,7.8 -4.2,2.85 -10.2,4.65 -10.05,3 -22.65,3 0.45,7.95 4.95,12.9 4.5,4.8 13.8,4.8 9.3,0 18.6,-6.6 l 5.7,12.15 q -3,2.7 -10.2,5.55 -7.05,2.85 -16.2,2.85 -18.3,0 -26.85,-10.05 -8.55,-10.2 -8.55,-27.9 0,-17.7 9.75,-29.7 9.75,-12 27.3,-12 z m -6.9,34.35 q 5.55,-1.05 10.2,-4.35 4.65,-3.45 4.65,-8.1 0,-9.15 -9,-9.15 -8.4,0 -12.9,6.75 -4.5,6.6 -4.95,15.9 6.6,-0.15 12,-1.05 z m 168.89989,-44.25 -4.95,0.45 q -3.9,0.3 -4.95,5.4 l -18.9,81.75 h -20.55 l -15.75,-66.75 h -0.45 l -15.3,66.75 h -21.15 l -20.7,-86.55 -8.55,-0.45 v -12.75 h 37.2 v 12.15 l -4.95,0.45 q -4.65,0.45 -4.65,3.9 0,0.6 0.15,1.35 l 13.05,57.9 h 0.6 l 15.6,-67.8 h 19.35 l 16.2,68.1 h 0.3 l 12.75,-62.7 -8.1,-0.6 v -12.75 h 33.75 z m 43.35,9.9 q 11.25,0 17.85,5.55 6.6,5.4 6.6,15.3 0,6.6 -2.85,11.7 -2.85,4.95 -7.05,7.8 -4.2,2.85 -10.2,4.65 -10.05,3 -22.65,3 0.45,7.95 4.95,12.9 4.5,4.8 13.8,4.8 9.3,0 18.6,-6.6 l 5.7,12.15 q -3,2.7 -10.2,5.55 -7.05,2.85 -16.2,2.85 -18.3,0 -26.85,-10.05 -8.55,-10.2 -8.55,-27.9 0,-17.7 9.75,-29.7 9.75,-12 27.3,-12 z m -6.9,34.35 q 5.55,-1.05 10.2,-4.35 4.65,-3.45 4.65,-8.1 0,-9.15 -9,-9.15 -8.4,0 -12.9,6.75 -4.5,6.6 -4.95,15.9 6.6,-0.15 12,-1.05 z m 68.69991,-63.6 v 94.5 l 8.55,0.45 V 0 h -35.7 v -11.4 l 4.95,-0.45 q 4.35,-0.45 4.35,-4.8 V -90.6 q 0,-3.3 -3.75,-3.6 l -5.25,-0.3 v -12.45 z m 44.70001,0 v 94.5 l 8.55,0.45 V 0 h -35.7 v -11.4 l 4.95,-0.45 q 4.35,-0.45 4.35,-4.8 V -90.6 q 0,-3.3 -3.75,-3.6 l -5.25,-0.3 v -12.45 z"
         id="text2"
         style="font-size:150px;font-family:f1;fill:#4f46e5"
         transform="scale(2.9357798)"
         aria-label="ShareWell" />
    </g>
  </g>
</svg>
