<?xml version="1.0" encoding="UTF-8"?>
<svg width="1200" height="630" viewBox="0 0 1200 630" xmlns="http://www.w3.org/2000/svg">
  <!-- Background -->
  <defs>
    <linearGradient id="bg-gradient" x1="0%" y1="0%" x2="100%" y2="100%">
      <stop offset="0%" style="stop-color:#6366F1;stop-opacity:0.1" />
      <stop offset="100%" style="stop-color:#6366F1;stop-opacity:0.05" />
    </linearGradient>
  </defs>
  
  <!-- Background Rectangle -->
  <rect width="1200" height="630" fill="url(#bg-gradient)" />
  
  <!-- Logo Group -->
  <g transform="translate(100, 100)">
    <!-- Original Logo -->
    <g transform="scale(0.8)">
      <path fill="#6366F1" d="M127.3,133.1c.3-.3.4-.8.1-1.1,0,0,0,0,0,0-1.8-1.9-4.2-4.2-7-6.9-11.9-11.4-20.8-31-18.9-47.6.3-2.6,1.1-4.9,2.3-6.8.6-.9,1.8-1.2,2.8-.7,3.5,2.1,6.5,4.9,10.1,8.6,7,7.1,15.9,11.1,25.4,15.4,10.4,4.8,20.8,8.3,31,10.6.9.2,1.8,0,2.6-.3,4.1-2,7.6-3.6,10.4-4.8,27.7-11.8,56.4-16,86.2-12.8,6.4.7,12.9,1.9,19.5,3.5,14,3.4,26,7.4,38.4,14.2.5.3,1,.3,1.6.2,15.3-3.2,28.7-9.1,42.6-16,8.8-4.3,14.8-9.6,22.2-16.8,1.2-1.2,2.5-2,3.9-2.4.8-.2,1.6,0,2.1.6,3.2,3.9,3.6,10.8,3,15.6-1.5,10.9-5.1,20.7-10.9,29.4-4.1,6.2-8.5,10.4-14.1,15.7-.6.5-.6,1.5,0,2,2.9,2.9,5.9,5.2,8.7,8.5,4,4.7,7.1,8.9,9.2,12.7,17.1,29.9,22.6,61.7,16.4,95.4-.8,4.2-1.9,8-3.3,11.3-.2.5-.2,1,0,1.5,5.4,9.6,8.7,20.2,10.1,31.8.6,4.9.9,8.8,1,11.5,1.3,27.1-6.5,54.7-19.1,78.7-2.7,5.2-5.1,9.6-7.1,13.2-4.6,8.4-11.3,17.5-16.7,25.3-4.3,6.1-11.4,12.6-16.5,18.1-6.8,7.3-13.9,13.8-21.4,21-8.9,8.6-19.2,16.7-28.9,25.2-17.2,15-36.2,28.2-55.9,39.6-.9.5-2.1.7-3.1.3-1.6-.5-3.2-1.4-4.8-2.5-10.5-7.6-20.8-15.2-30.9-22.5-11.4-8.3-24.1-20.4-34.4-29.2-18.3-15.5-35.6-32.7-51.8-51.5-4.2-4.9-8.2-10.2-12-15.8-8.8-13.2-16.2-27.2-22.2-42.2-7.3-18.1-10.7-36.6-10.3-55.4.4-15,3.6-29.5,9.5-43.3.3-.6.3-1.3,0-1.9-4.1-9.5-6.2-21-6.5-31.9-.3-18.7,2.1-36.1,7.4-52.2,2.3-7.1,5.9-15.1,11-24,4.7-8.3,10.8-15.4,18.3-21.1Z"/>
      <ellipse fill="#6366F1" cx="182.7" cy="204.6" rx="29.7" ry="30.5" transform="translate(-80.3 126.5) rotate(-31.7)"/>
      <circle fill="#6366F1" cx="324.6" cy="204.8" r="30.2"/>
      <path fill="#6366F1" d="M1694.4,226.9l-61.6,187.6-46.2.5-35.7-124.3-39.2,124.3-46.2-1.7-64-186.5h48.6l40.9,129,38.5-128.5,42.6-.4c7.2,23.8,11.7,48.4,18.3,72.3,4.4,16.1,10.2,39.8,16.3,54.8.6,1.4-.9,2.2,2.4,1.8l41.5-129.7c.8-.5,1.6.7,1.8.7h42.1Z"/>
    </g>
  </g>

  <!-- Tagline -->
  <g transform="translate(100, 400)">
    <text font-family="Inter, sans-serif" font-size="48" font-weight="700" fill="#1F2937">
      <tspan x="0" y="0">Share your health.</tspan>
      <tspan x="0" y="70" fill="#6366F1">Save your wealth.</tspan>
    </text>
  </g>
</svg> 