<?xml version="1.0" encoding="UTF-8"?>
<svg id="Layer_1" xmlns="http://www.w3.org/2000/svg" version="1.1" viewBox="0 0 2229.5 596.3">
  <!-- Generator: Adobe Illustrator 29.1.0, SVG Export Plug-In . SVG Version: 2.1.0 Build 142)  -->
  <defs>
    <style>
      .st0 {
        opacity: 0;
      }

      .st0, .st1 {
        fill: #6366f1;
      }
    </style>
  </defs>
  <rect class="st0" width="2229.5" height="596.3"/>
  <g>
    <path class="st1" d="M127.3,133.1c.3-.3.4-.8.1-1.1,0,0,0,0,0,0-1.8-1.9-4.2-4.2-7-6.9-11.9-11.4-20.8-31-18.9-47.6.3-2.6,1.1-4.9,2.3-6.8.6-.9,1.8-1.2,2.8-.7,3.5,2.1,6.5,4.9,10.1,8.6,7,7.1,15.9,11.1,25.4,15.4,10.4,4.8,20.8,8.3,31,10.6.9.2,1.8,0,2.6-.3,4.1-2,7.6-3.6,10.4-4.8,27.7-11.8,56.4-16,86.2-12.8,6.4.7,12.9,1.9,19.5,3.5,14,3.4,26,7.4,38.4,14.2.5.3,1,.3,1.6.2,15.3-3.2,28.7-9.1,42.6-16,8.8-4.3,14.8-9.6,22.2-16.8,1.2-1.2,2.5-2,3.9-2.4.8-.2,1.6,0,2.1.6,3.2,3.9,3.6,10.8,3,15.6-1.5,10.9-5.1,20.7-10.9,29.4-4.1,6.2-8.5,10.4-14.1,15.7-.6.5-.6,1.5,0,2,2.9,2.9,5.9,5.2,8.7,8.5,4,4.7,7.1,8.9,9.2,12.7,17.1,29.9,22.6,61.7,16.4,95.4-.8,4.2-1.9,8-3.3,11.3-.2.5-.2,1,0,1.5,5.4,9.6,8.7,20.2,10.1,31.8.6,4.9.9,8.8,1,11.5,1.3,27.1-6.5,54.7-19.1,78.7-2.7,5.2-5.1,9.6-7.1,13.2-4.6,8.4-11.3,17.5-16.7,25.3-4.3,6.1-11.4,12.6-16.5,18.1-6.8,7.3-13.9,13.8-21.4,21-8.9,8.6-19.2,16.7-28.9,25.2-17.2,15-36.2,28.2-55.9,39.6-.9.5-2.1.7-3.1.3-1.6-.5-3.2-1.4-4.8-2.5-10.5-7.6-20.8-15.2-30.9-22.5-11.4-8.3-24.1-20.4-34.4-29.2-18.3-15.5-35.6-32.7-51.8-51.5-4.2-4.9-8.2-10.2-12-15.8-8.8-13.2-16.2-27.2-22.2-42.2-7.3-18.1-10.7-36.6-10.3-55.4.4-15,3.6-29.5,9.5-43.3.3-.6.3-1.3,0-1.9-4.1-9.5-6.2-21-6.5-31.9-.3-18.7,2.1-36.1,7.4-52.2,2.3-7.1,5.9-15.1,11-24,4.7-8.3,10.8-15.4,18.3-21.1ZM252,384.6c.3-.2.5-.6.6-1,1.4-4.3,4.1-11,8.2-20.1,4.2-9.4,9.5-18.2,15.9-26.3,21.7-27.7,50.5-47.6,80.7-66.5,4.6-2.9,9.1-6.4,13.7-10.5,11.9-10.8,18.9-24,21.1-39.4.4-2.9.6-6.7.7-11.5,0-9.4-.4-17.9-2.8-24.9-3.4-9.8-8.2-18.3-14.4-25.6-3.4-3.9-8.4-8.2-15.2-12.7-6.6-4.4-14.9-6.3-22.3-6.2-25.3.4-49.4,12.6-63.1,34.2-2.5,3.9-4.2,7.2-5.1,9.9-1.5,4.3-2.8,9-4,14.2-1.2,5-.9,11.5-.6,16.2.2,3.4,1.4,8.2,3.5,14.1.1.4,2.1,5.6,6.1,15.6.6,1.6.4,3.5-.8,5.7-3.6,6.6-7.5,13.6-11.8,20.9-2.4,4-4.6,10.8-8.6,13.3-.4.2-.9.2-1.2-.1l-2.6-2.7c0,0-.2-.2-.2-.3-6-11.4-12-21.8-18-31-1.9-3-2.6-4.7-.3-7.5,8.2-10.4,11.9-26.5,10.3-39.7-.9-7.5-3.2-15.2-6.9-23.2-4.1-8.7-10.7-16.6-19.7-23.7-11.7-9.1-24.7-14.3-39.2-15.7-14.4-1.4-25,1.4-36.4,10.6-8.6,6.9-15,14.9-19,24-3.6,8.1-7.1,16.6-7.1,25.5,0,6.4-.3,11.4.6,16.9.6,3.7,1.2,6.9,1.9,9.7,4.9,20.2,19.6,34.2,36.6,44.9,23.5,14.7,44.1,27.8,63,46,7.6,7.4,13.8,15.1,18.5,23.1,7.9,13.5,13.7,28.1,17.5,43.6,0,.2.3.4.5.3,0,0,.1,0,.2-.1ZM117.1,289c-.9,5.9-1.4,11-1.7,15.4-.6,10,.3,19.9,2.8,29.6,3.5,13.9,7.9,25.5,13,34.7,9,16.3,19.2,32.1,31.5,45.5,6,6.5,12.2,12.7,18.7,18.5,15.3,13.9,33.1,26.7,50.3,38.3.2.1.4,0,.5,0,0,0,0,0,0-.1.7-3.3,1.2-7.9,1.7-13.9.4-4.6.9-10.5.9-15.4-.2-15.8-2.3-29.9-6.1-42.3-5.6-18.4-14.9-35.5-27.6-51.2-6.9-8.4-15.1-16.3-24.7-23.5-9.4-7.2-18.9-13.5-28.5-18.9-13.6-7.8-23.8-13.4-30.4-17-.2-.1-.5,0-.6.2,0,0,0,0,0,.1ZM388.5,288.9c-14.7,8-25,15.1-43.2,26.9-11.1,7.2-21.3,15.6-30.4,25.3-4,4.3-7.9,9-11.6,14.4-10.4,15-19.9,30.2-26.9,47.6-3.2,7.9-5.1,12.7-5.7,14.4-5.3,14.5-10.1,30.4-15.6,44.9-5.2,14-9.3,25.3-12.3,33.7,0,.1,0,.3.1.3,0,0,.2,0,.2,0,6.1-3.3,12.2-7.1,18.4-11.2,12.2-8.1,23.3-16,33.4-23.9,22.6-17.5,42.3-37,58.9-59.4,14-19,24.3-39.5,30.8-61.5,1.9-6.5,3.2-12.2,3.7-17.1,1.2-11.2,1.5-22.5.7-34.2,0-.2-.2-.4-.4-.4,0,0-.1,0-.2,0Z"/>
    <ellipse class="st1" cx="182.7" cy="204.6" rx="29.7" ry="30.5" transform="translate(-80.3 126.5) rotate(-31.7)"/>
    <circle class="st1" cx="324.6" cy="204.8" r="30.2"/>
    <path class="st1" d="M1694.4,226.9l-61.6,187.6-46.2.5-35.7-124.3-39.2,124.3-46.2-1.7-64-186.5h48.6l40.9,129,38.5-128.5,42.6-.4c7.2,23.8,11.7,48.4,18.3,72.3,4.4,16.1,10.2,39.8,16.3,54.8.6,1.4-.9,2.2,2.4,1.8l41.5-129.7c.8-.5,1.6.7,1.8.7h42.1Z"/>
    <path class="st1" d="M644.6,389.9c-8.9,9-25.7,18.1-37.8,22.1-40.8,13.3-88.4,4.2-121.3-22.9-1.6-3.4,6-18.4,7.6-23.1s4.6-19.4,6.6-19.4c23.1,23.1,84.2,44.6,109.7,17.2,8-8.6,11.4-22.8,4.5-33-10.4-15.4-67-26.7-87-37.5-51.8-28-50-98.5.6-126.1,35.1-19.2,81.7-15.5,117,1.6,16,7.7,13.4,8.3,8.1,23.8s-7.8,20.1-9.4,20.2c-10.2-7.1-24.2-12.8-36.4-15.8-20.7-5.1-59.2-7.2-70,16.2-11.4,24.7,7.5,36.1,26.9,44.6,50.4,22.2,105.8,19.3,99,92.9-1.2,12.8-9.2,30.1-18.2,39.3Z"/>
    <path class="st1" d="M739.8,151.2v91.1c9.6-7.1,18-13.7,29.7-17.1,38.9-11.4,76.8,2.7,90.6,42.1,1.8,5.1,5.4,16.9,5.4,21.8v124.3l-1.8,1.8h-42.7l-1.8-1.8v-114.8c0-2.5-3.1-13-4.3-15.8-15.1-37.5-76.3-25.4-76.3,15.8v114.8l-4.1,1.8-42.2-1.2V151.2h47.4Z"/>
    <path class="st1" d="M1012,415.1l-1.8-17.8c-5.2,3.2-8.7,8-14.3,11.1-32.8,17.9-88.4,12.2-101.3-27.7-6.7-20.5-3.7-45.4,9.6-62.7,22.3-28.8,75.1-21.3,106-13.1,3.2-15.1-.6-31.2-14.6-39.3-25.3-14.7-55.8-3-80.3,7.4l-9.5-29.1c-.4-2.2-.3-4.1,1.1-5.9,4.1-5.7,43.4-15.3,51.6-15.9,131.2-9.5,91.1,101.4,97.9,188.9l-1.8,4.1h-42.7ZM945.5,372c18.1,14.4,58.6,4.7,64.4-19.4,1.3-5.5,4-13.7-2.9-15.4-12.9-3.1-37.7-5.3-50.7-3.8-18.8,2.1-23.3,28.6-10.8,38.5Z"/>
    <path class="st1" d="M2139.1,333.5h-130.4c5.3,42.2,50,58.7,86.2,40.5s12-8.5,18.6-11.9l20.5,23.6c-9.4,12.6-20.4,21.2-35.2,26.5-43.2,15.7-109.4.3-129.7-44.5-22.3-49.3-4.6-111.5,44.9-136,62.6-31,134,19.4,127.5,88.2-.4,4.6-3.4,8.6-2.4,13.6ZM2009.9,299.1h84.8c5.7-9.7-4.4-25.3-12.5-31.3-28.3-20.8-67.6-1.8-72.3,31.3Z"/>
    <path class="st1" d="M1264,333.5c1.7,25.4,24.2,45.6,49.2,47.4,19.8,1.5,37.2-8.2,52.2-19.7l20.6,22.9c1.5,5.5-11.7,14.8-16.1,17.9-47.6,33.2-132.8,13.3-149.4-45.7-20.6-73,33.6-154.5,113.7-131.3,42.8,12.4,72,65.9,59,108.6h-129.3ZM1266.9,299.1h81.8c.4,0,1.9-1.4,2.9-1.3-4.3-52-75.7-50.4-86.5-2.8l1.8,4Z"/>
    <polygon class="st1" points="1944.7 226.9 1942.6 263.3 1859.2 371.9 1858.1 376.1 1939.9 376.1 1941.1 415.1 1795.2 413.4 1795.2 386.1 1883.5 268.3 1884.2 263.6 1801.2 263.6 1801.2 226.9 1944.7 226.9"/>
    <path class="st1" d="M1133.5,226.9l3,22.5c2.9.4,2.5-.6,4-2,2.6-2.6,4.9-6,7.9-8.7,15.6-14,38.1-23.7,57.6-11l-4.8,40.7c-24-9.1-47.1,1.2-56.9,24.3-1.8,4.1-5.9,18.7-5.9,22.5v98.8l-44.4,1.1-1.9-1.6v-186.4h41.5Z"/>
    <polygon class="st1" points="1763.8 226.9 1765.3 411.9 1763.6 415.2 1721.3 414.9 1719.3 413.4 1719.3 226.9 1763.8 226.9"/>
    <path class="st1" d="M1738.1,144.4c38.5-4,41.6,47.4,7.9,51.6-36,4.6-41.3-48.2-7.9-51.6Z"/>
  </g>
</svg>