<svg width="1838" height="233" viewBox="0 0 1838 233" fill="none" xmlns="http://www.w3.org/2000/svg">
<g clip-path="url(#clip0_1_14)">
<path d="M722.191 63.6593L720.672 63.6493C716.332 63.5993 711.842 63.5493 707.602 64.6093C698.162 66.9593 691.792 73.4293 688.672 83.8393C683.522 101.029 678.382 118.219 673.242 135.409L663.872 166.729L651.332 124.789C645.802 106.269 640.262 87.7493 634.742 69.2193C633.412 64.7593 631.852 63.5292 627.492 63.5092C625.892 63.4992 624.282 63.4992 622.682 63.5092C609.752 63.6092 599.812 71.0692 596.092 83.4492L571.142 166.629C571.102 166.499 571.062 166.359 571.022 166.219L563.752 141.809C557.952 122.329 552.142 102.839 546.322 83.3692C543.392 73.5692 536.832 67.0492 527.342 64.5192C524.142 63.6692 520.762 63.6192 517.492 63.5792C516.792 63.5692 516.102 63.5593 515.412 63.5493C512.272 63.4693 510.172 64.1992 508.972 65.7692C507.762 67.3592 507.612 69.6293 508.532 72.7093C515.162 95.0193 521.802 117.309 528.452 139.609L548.552 207.079C551.642 217.439 558.242 223.899 568.152 226.299C571.402 227.079 574.802 227.119 578.092 227.159C578.752 227.169 579.412 227.169 580.072 227.189C580.532 227.199 580.962 227.199 581.372 227.199C587.062 227.199 588.062 226.159 589.862 220.099C594.952 203.039 600.032 185.979 605.102 168.919L614.762 136.459C615.582 133.699 616.432 130.939 617.352 127.939L617.512 127.419L625.422 153.989C630.692 171.679 635.952 189.369 641.242 207.049C644.362 217.459 650.942 223.939 660.802 226.309C664.012 227.079 667.382 227.119 670.632 227.159L671.662 227.169C679.962 227.279 680.592 226.819 682.982 218.809L683.032 218.639C691.562 189.959 700.102 161.289 708.642 132.619L721.232 90.3593C723.082 84.1593 724.922 77.9692 726.722 71.7592C727.402 69.4292 727.111 67.1093 725.941 65.5493C725.071 64.3293 723.731 63.6693 722.191 63.6593Z" fill="#3E4750"/>
<path d="M884.422 8.86915C881.172 8.46915 879.082 8.85918 877.622 10.1492C876.162 11.4392 875.522 13.4792 875.522 16.7592L875.512 77.9892C875.512 78.0392 875.512 78.0892 875.512 78.1392C839.462 48.8992 787.632 52.7092 756.342 87.3592C741.842 103.409 733.812 123.919 733.712 145.099C733.622 166.169 741.352 186.589 755.492 202.609C769.762 218.779 787.332 228.429 807.702 231.299C812.242 231.939 816.702 232.259 821.082 232.259C841.872 232.259 860.862 225.079 877.702 210.829C877.932 211.319 878.162 211.809 878.422 212.279C883.532 221.739 891.482 226.749 902.042 227.169C905.922 227.329 908.372 225.029 908.572 221.029C908.612 220.309 908.602 219.579 908.592 218.859L908.582 64.1592C908.582 61.3292 908.592 58.4892 908.602 55.6592C908.622 49.1092 908.652 42.3292 908.542 35.6592C908.332 21.5992 898.412 10.5892 884.422 8.86915ZM874.102 145.379C874.122 159.709 868.552 173.189 858.412 183.339C848.282 193.489 834.812 199.069 820.482 199.069H820.472C790.962 199.059 766.942 175.029 766.922 145.499C766.912 131.239 772.532 117.769 782.752 107.559C792.932 97.3892 806.342 91.7892 820.532 91.7892C820.562 91.7892 820.582 91.7892 820.612 91.7892C850.062 91.8292 874.062 115.879 874.102 145.379Z" fill="#3E4750"/>
<path d="M154.642 42.7992C163.862 47.1592 171.192 54.4492 178.502 62.1692C187.972 72.1692 201.252 73.8792 213.152 66.6492C215.172 65.4192 216.342 64.0592 216.702 62.4892C217.052 60.9592 216.642 59.3092 215.442 57.4392L214.752 56.3692C212.602 53.0192 210.382 49.5492 207.902 46.3392C182.792 13.8492 140.682 -4.02083 99.7822 0.769173C47.3822 6.90917 3.8622 54.2292 0.272193 106.649C-0.497807 117.899 0.402213 129.219 2.51222 140.279C12.5422 192.649 60.7821 231.979 114.862 231.979C115.162 231.979 115.462 231.979 115.762 231.979C136.882 231.979 156.092 226.719 174.452 215.919C191.452 205.919 205.312 192.019 215.662 174.599C217.502 171.509 217.052 168.529 214.452 166.629C204.062 159.009 188.932 159.509 180.742 167.749C179.362 169.139 177.992 170.559 176.652 171.989C152.312 197.789 119.712 205.379 84.8422 193.349C72.7822 189.189 62.3022 181.109 50.8522 167.159C24.8022 135.409 30.3321 89.6492 50.3921 65.4592C76.8421 33.5892 116.782 24.9092 154.642 42.7992Z" fill="#3E4750"/>
<path d="M322.311 63.5992C320.451 63.5892 318.581 63.5992 316.721 63.6192C313.591 63.6492 310.341 63.6792 307.181 63.5592C293.691 63.0792 281.952 66.1292 271.322 72.8792C270.902 72.3392 270.491 71.8292 270.001 71.3492C264.671 66.2292 258.392 63.6292 251.322 63.6092C251.312 63.6092 251.311 63.6092 251.301 63.6092C247.721 63.6092 245.381 65.7692 245.031 69.3892C244.971 70.0592 244.971 70.7192 244.981 71.3492V71.9192V218.869V219.319C244.981 219.719 244.981 220.119 244.991 220.509C245.071 222.899 245.781 224.689 247.101 225.829C248.101 226.699 249.402 227.129 250.952 227.129C251.292 227.129 251.631 227.109 251.991 227.069C255.331 226.689 259.161 226.159 262.421 224.609C272.951 219.599 278.301 211.019 278.311 199.109C278.341 170.589 278.351 146.589 278.301 122.169C278.281 115.499 280.181 110.009 284.101 105.369C288.741 99.8792 295.101 97.1192 304.121 96.6492C317.621 95.9592 328.812 84.2692 329.072 70.5992C329.112 68.2492 328.571 66.5392 327.421 65.3492C326.281 64.1992 324.601 63.6192 322.311 63.5992Z" fill="#3E4750"/>
<path d="M1271.01 70.4091C1236.29 49.6891 1191.21 56.6391 1163.81 86.9291C1145.58 107.089 1138.15 130.689 1141.74 157.069C1145.14 182.049 1157.68 202.219 1179.03 217.029C1193.34 226.959 1210.43 232.159 1227.81 232.159C1234.12 232.159 1240.47 231.469 1246.74 230.079C1270.24 224.839 1290.54 210.089 1302.44 189.589C1304.61 185.859 1303.87 182.809 1300.26 180.529C1288.34 172.989 1275.44 174.279 1264.87 184.069C1253.43 194.669 1238.92 199.939 1224.02 198.919C1209.16 197.899 1195.55 190.719 1185.71 178.709C1181.58 173.669 1178.64 168.209 1176.74 162.049H1215.7C1246.11 162.049 1276.52 162.049 1306.94 162.049C1312.49 162.049 1314.56 160.009 1314.57 154.519C1314.57 153.579 1314.58 152.639 1314.59 151.699C1314.61 149.029 1314.63 146.269 1314.52 143.539C1313.15 111.419 1298.52 86.8191 1271.01 70.4091ZM1223.45 91.7891C1252.74 89.5391 1273.76 111.299 1278.54 128.739H1177C1180.9 112.329 1200.34 93.5591 1223.45 91.7891Z" fill="#3E4750"/>
<path d="M1118 6.62901C1116.73 5.45901 1114.91 5.00903 1112.25 5.20903C1097.34 6.34903 1086.89 17.5491 1086.83 32.4491C1086.77 47.7091 1086.78 63.2291 1086.79 78.2391C1086.8 84.7291 1086.8 91.2291 1086.8 97.7191V99.5092H980.941V75.069C980.941 70.789 980.951 66.5191 980.951 62.2391C980.971 52.6491 980.982 42.7291 980.912 32.9691C980.802 18.2191 971.101 7.11905 956.761 5.34905C953.131 4.89905 951.061 5.23902 949.621 6.50902C947.841 8.07902 947.601 10.8691 947.601 13.3891V218.749L947.591 219.339C947.581 219.889 947.581 220.439 947.621 220.979C947.761 222.969 948.561 224.659 949.871 225.729C950.841 226.519 952.031 226.929 953.341 226.929C953.621 226.929 953.911 226.909 954.211 226.869L954.351 226.849C957.921 226.379 961.601 225.889 964.891 224.389C975.551 219.529 980.951 210.899 980.941 198.759C980.921 183.749 980.922 168.749 980.932 153.739V132.859H1086.79L1086.78 154.069C1086.77 169.229 1086.76 184.399 1086.81 199.559C1086.86 213.899 1096.71 225.049 1110.78 226.669C1113.45 226.979 1116.16 227.049 1117.89 225.509C1119.61 223.969 1119.85 221.279 1119.85 218.589V57.3991C1119.85 42.3191 1119.85 27.2391 1119.84 12.1591C1119.85 9.55907 1119.26 7.79901 1118 6.62901Z" fill="#3E4750"/>
<path d="M1500.17 133.989C1497.21 111.109 1485.4 90.7091 1466.9 76.5291C1448.4 62.3491 1425.61 56.2491 1402.74 59.3391C1378.46 62.6291 1356.55 76.1091 1342.64 96.3391C1328.87 116.369 1324.15 141.349 1329.69 164.879C1336.29 192.889 1355.23 215.119 1381.67 225.859C1392.29 230.169 1403.32 232.309 1414.28 232.309C1430.37 232.309 1446.3 227.709 1460.52 218.649C1463.15 216.969 1465.71 215.099 1468.19 213.289C1468.98 212.719 1469.77 212.139 1470.56 211.569C1470.57 211.599 1470.59 211.629 1470.6 211.649C1474.79 220.369 1481.86 225.509 1491.62 226.949C1495.09 227.459 1497.32 227.099 1498.85 225.769C1500.38 224.449 1501.07 222.299 1501.07 218.809L1501.08 201.529C1501.09 183.629 1501.1 165.109 1501.04 146.899C1501.02 142.639 1500.73 138.299 1500.17 133.989ZM1467.73 145.399C1467.73 174.919 1443.77 198.959 1414.32 198.999C1414.3 198.999 1414.28 198.999 1414.25 198.999C1399.97 198.999 1386.52 193.419 1376.38 183.289C1366.21 173.129 1360.61 159.649 1360.62 145.319C1360.62 131.039 1366.23 117.579 1376.42 107.419C1386.59 97.2791 1400.03 91.699 1414.29 91.699C1414.33 91.699 1414.37 91.699 1414.41 91.699C1443.81 91.759 1467.74 115.849 1467.73 145.399Z" fill="#3E4750"/>
<path d="M1837.64 131.759C1837.51 111.039 1829.52 93.1392 1813.88 78.5492C1791.16 57.3492 1758.52 52.5992 1730.73 66.4692C1728.51 67.5792 1726.39 68.8292 1724.14 70.1592C1723.73 70.3992 1723.31 70.6492 1722.89 70.8892V69.8992C1722.88 66.2192 1722.9 62.5392 1722.91 58.8492C1722.94 50.5892 1722.98 42.0392 1722.71 33.6392C1722.27 20.1292 1710.21 8.67916 1696.38 8.63916C1696.37 8.63916 1696.36 8.63916 1696.35 8.63916C1692.24 8.63916 1689.96 10.8092 1689.76 14.9292C1689.73 15.4792 1689.74 16.0392 1689.74 16.5892L1689.75 218.759V219.269C1689.74 220.109 1689.74 220.979 1689.85 221.859C1690.25 224.919 1692.25 226.819 1695.34 227.069C1695.7 227.099 1696.07 227.109 1696.45 227.109C1697.36 227.109 1698.34 227.029 1699.38 226.859C1713.59 224.599 1722.82 213.759 1722.88 199.239C1722.93 187.959 1722.92 176.679 1722.91 165.399C1722.9 158.029 1722.9 150.669 1722.91 143.299C1722.91 142.259 1722.91 141.219 1722.9 140.179C1722.88 136.419 1722.86 132.539 1723.16 128.769C1724.26 114.709 1732.62 102.479 1745.51 96.0392C1758.33 89.6392 1773.04 90.3092 1784.85 97.8192C1797.82 106.079 1804.42 118.049 1804.44 133.429C1804.45 140.789 1804.44 148.139 1804.43 155.499C1804.41 170.619 1804.39 186.249 1804.59 201.629C1804.77 215.099 1816.63 226.759 1830.49 227.089C1832.92 227.149 1834.69 226.599 1835.9 225.419C1837.09 224.259 1837.67 222.539 1837.67 220.189C1837.67 212.159 1837.68 204.139 1837.69 196.109C1837.74 175.029 1837.77 153.219 1837.64 131.759Z" fill="#3E4750"/>
<path d="M1669.98 63.4092C1664.55 63.3792 1659.12 63.3892 1653.69 63.3892H1644.43V48.8092C1644.43 37.7292 1644.43 26.6392 1644.42 15.5592C1644.42 13.1592 1643.83 11.4192 1642.64 10.2592C1641.44 9.09917 1639.7 8.56918 1637.28 8.63918C1624.01 9.02918 1612.81 19.2892 1611.79 31.9792C1611.24 38.7792 1611.28 45.6992 1611.32 52.3992C1611.34 55.3792 1611.36 58.3692 1611.32 61.3392C1611.31 61.9992 1611.31 62.6492 1611.32 63.3792H1607.57C1603.62 63.3692 1599.77 63.3692 1595.93 63.3992C1592 63.4392 1589.62 65.6892 1589.56 69.4192C1589.45 76.2492 1589.45 83.3392 1589.55 90.4992C1589.6 94.2592 1591.96 96.5292 1595.86 96.5892C1598.93 96.6292 1602 96.6192 1605.07 96.6192L1611.31 96.6092V168.079C1611.31 171.259 1611.3 174.439 1611.29 177.609C1611.27 184.789 1611.25 192.209 1611.33 199.519C1611.49 214.089 1621.12 225.019 1635.28 226.729C1636.27 226.849 1637.14 226.909 1637.92 226.909C1639.98 226.909 1641.35 226.479 1642.39 225.549C1644.17 223.979 1644.41 221.189 1644.41 218.669V96.5892H1645.39C1646.94 96.5992 1648.37 96.5992 1649.8 96.5792C1664.53 96.3392 1676.03 85.0492 1676.55 70.3092C1676.63 68.0692 1676.09 66.3392 1674.96 65.1592C1673.85 64.0192 1672.17 63.4192 1669.98 63.4092Z" fill="#3E4750"/>
<path d="M1540.61 8.98935C1538.07 8.58935 1535.22 8.37932 1533.37 9.95927C1531.54 11.5193 1531.3 14.2794 1531.3 16.7794V126.189C1531.3 149.909 1531.3 173.639 1531.3 197.359V197.749C1531.3 199.219 1531.3 200.739 1531.41 202.249C1532.39 215.559 1543.53 226.459 1556.78 227.079C1557.06 227.089 1557.32 227.099 1557.58 227.099C1559.86 227.099 1561.46 226.599 1562.56 225.549C1563.79 224.369 1564.37 222.549 1564.37 219.809V190.319C1564.38 139.069 1564.38 87.8093 1564.36 36.5593C1564.35 21.6593 1555.47 11.3494 1540.61 8.98935Z" fill="#3E4750"/>
<path d="M417.352 58.5993C394.262 58.4593 372.402 67.5193 355.912 83.9493C339.362 100.379 330.282 122.219 330.252 145.359C330.252 168.479 339.312 190.229 355.742 206.629C372.172 223.029 393.982 232.059 417.132 232.059C417.132 232.059 417.132 232.059 417.162 232.059C464.892 232.029 503.752 193.189 503.812 145.469C503.822 97.7793 465.072 58.7993 417.352 58.5993ZM460.412 137.159C460.322 139.869 459.872 142.499 458.982 145.049C458.412 146.679 457.812 148.309 457.012 149.819C455.872 152.049 454.642 154.249 453.242 156.339C450.132 161.059 446.442 165.339 442.582 169.459C438.642 173.659 434.522 177.659 430.122 181.409C426.462 184.519 422.752 187.529 419.032 190.579C418.802 190.779 418.522 190.949 418.232 191.149C417.372 191.749 416.492 191.659 415.692 191.039C413.492 189.299 411.262 187.579 409.092 185.779C406.462 183.609 403.862 181.379 401.322 179.089C399.092 177.059 396.952 174.969 394.782 172.859C390.552 168.689 386.662 164.229 383.062 159.509C380.952 156.739 379.002 153.849 377.432 150.739C376.262 148.369 375.262 145.969 374.572 143.419C373.942 141.019 373.572 138.559 373.632 135.899C373.542 133.529 373.922 131.039 374.572 128.639C375.342 125.749 376.542 123.039 378.262 120.549C379.692 118.519 381.352 116.659 383.352 115.179C385.752 113.379 388.412 112.119 391.292 111.319C393.752 110.629 396.232 110.459 398.752 110.609C401.072 110.719 403.322 111.269 405.492 112.119C408.632 113.319 411.382 115.119 413.632 117.549C414.722 118.719 415.602 120.009 416.572 121.269C416.912 121.729 417.142 121.759 417.462 121.269C418.972 118.949 420.752 116.949 422.952 115.269C425.122 113.609 427.522 112.379 430.122 111.549C433.212 110.609 436.352 110.319 439.552 110.689C441.612 110.949 443.582 111.429 445.492 112.199C448.492 113.429 451.122 115.199 453.382 117.539C454.952 119.169 456.272 121.029 457.292 123.029C458.062 124.539 458.632 126.169 459.212 127.799C460.242 130.849 460.532 133.989 460.412 137.159Z" fill="#FD8A0A"/>
</g>
<defs>
<clipPath id="clip0_1_14">
<rect width="1838" height="233" fill="white"/>
</clipPath>
</defs>
</svg>
