<svg width="1838" height="234" viewBox="0 0 1838 234" fill="none" xmlns="http://www.w3.org/2000/svg">
<path d="M722.318 64.5101L720.799 64.5001C716.459 64.4501 711.969 64.4001 707.729 65.4601C698.289 67.8101 691.919 74.2801 688.799 84.6901C683.649 101.88 678.509 119.07 673.369 136.26L663.999 167.58L651.459 125.64C645.929 107.12 640.389 88.6001 634.869 70.0701C633.539 65.6101 631.979 64.38 627.619 64.36C626.019 64.35 624.409 64.35 622.809 64.36C609.879 64.46 599.939 71.92 596.219 84.3L571.269 167.48C571.229 167.35 571.189 167.21 571.149 167.07L563.879 142.66C558.079 123.18 552.269 103.69 546.449 84.22C543.519 74.42 536.959 67.9 527.469 65.37C524.269 64.52 520.889 64.47 517.619 64.43C516.919 64.42 516.229 64.4101 515.539 64.4001C512.399 64.3201 510.299 65.05 509.099 66.62C507.889 68.21 507.739 70.4801 508.659 73.5601C515.289 95.8701 521.929 118.16 528.579 140.46L548.679 207.93C551.769 218.29 558.369 224.75 568.279 227.15C571.529 227.93 574.929 227.97 578.219 228.01C578.879 228.02 579.539 228.02 580.199 228.04C580.659 228.05 581.089 228.05 581.499 228.05C587.189 228.05 588.189 227.01 589.989 220.95C595.079 203.89 600.159 186.83 605.229 169.77L614.889 137.31C615.709 134.55 616.559 131.79 617.479 128.79L617.639 128.27L625.549 154.84C630.819 172.53 636.079 190.22 641.369 207.9C644.489 218.31 651.069 224.79 660.929 227.16C664.139 227.93 667.509 227.97 670.759 228.01L671.789 228.02C680.089 228.13 680.719 227.67 683.109 219.66L683.159 219.49C691.689 190.81 700.229 162.14 708.769 133.47L721.359 91.2101C723.209 85.0101 725.049 78.82 726.849 72.61C727.529 70.28 727.238 67.9601 726.068 66.4001C725.198 65.1801 723.858 64.5201 722.318 64.5101Z" fill="#3E4750"/>
<path d="M884.549 9.71998C881.299 9.31998 879.209 9.71001 877.749 11C876.289 12.29 875.649 14.33 875.649 17.61L875.639 78.84C875.639 78.89 875.639 78.94 875.639 78.99C839.589 49.75 787.759 53.56 756.469 88.21C741.969 104.26 733.939 124.77 733.839 145.95C733.749 167.02 741.479 187.44 755.619 203.46C769.889 219.63 787.459 229.28 807.829 232.15C812.369 232.79 816.829 233.11 821.209 233.11C841.999 233.11 860.989 225.93 877.829 211.68C878.059 212.17 878.289 212.66 878.549 213.13C883.659 222.59 891.609 227.6 902.169 228.02C906.049 228.18 908.499 225.88 908.699 221.88C908.739 221.16 908.729 220.43 908.719 219.71L908.709 65.01C908.709 62.18 908.719 59.34 908.729 56.51C908.749 49.96 908.779 43.18 908.669 36.51C908.459 22.45 898.539 11.44 884.549 9.71998ZM874.229 146.23C874.249 160.56 868.679 174.04 858.539 184.19C848.409 194.34 834.939 199.92 820.609 199.92H820.599C791.089 199.91 767.069 175.88 767.049 146.35C767.039 132.09 772.659 118.62 782.879 108.41C793.059 98.24 806.469 92.64 820.659 92.64C820.689 92.64 820.709 92.64 820.739 92.64C850.189 92.68 874.189 116.73 874.229 146.23Z" fill="#3E4750"/>
<path d="M154.769 43.65C163.989 48.01 171.319 55.3 178.629 63.02C188.099 73.02 201.379 74.73 213.279 67.5C215.299 66.27 216.469 64.91 216.829 63.34C217.179 61.81 216.769 60.16 215.569 58.29L214.879 57.22C212.729 53.87 210.509 50.4 208.029 47.19C182.919 14.7 140.809 -3.17 99.9092 1.62C47.5092 7.76 3.98915 55.08 0.399146 107.5C-0.370854 118.75 0.529166 130.07 2.63917 141.13C12.6692 193.5 60.9091 232.83 114.989 232.83C115.289 232.83 115.589 232.83 115.889 232.83C137.009 232.83 156.219 227.57 174.579 216.77C191.579 206.77 205.439 192.87 215.789 175.45C217.629 172.36 217.179 169.38 214.579 167.48C204.189 159.86 189.059 160.36 180.869 168.6C179.489 169.99 178.119 171.41 176.779 172.84C152.439 198.64 119.839 206.23 84.9692 194.2C72.9092 190.04 62.4292 181.96 50.9792 168.01C24.9292 136.26 30.4591 90.5 50.5191 66.31C76.9691 34.44 116.909 25.76 154.769 43.65Z" fill="#3E4750"/>
<path d="M322.438 64.45C320.578 64.44 318.708 64.45 316.848 64.47C313.718 64.5 310.468 64.53 307.308 64.41C293.818 63.93 282.079 66.98 271.449 73.73C271.029 73.19 270.618 72.68 270.128 72.2C264.798 67.08 258.519 64.48 251.449 64.46C251.439 64.46 251.438 64.46 251.428 64.46C247.848 64.46 245.508 66.62 245.158 70.24C245.098 70.91 245.098 71.57 245.108 72.2V72.77V219.72V220.17C245.108 220.57 245.108 220.97 245.118 221.36C245.198 223.75 245.908 225.54 247.228 226.68C248.228 227.55 249.529 227.98 251.079 227.98C251.419 227.98 251.758 227.96 252.118 227.92C255.458 227.54 259.288 227.01 262.548 225.46C273.078 220.45 278.428 211.87 278.438 199.96C278.468 171.44 278.478 147.44 278.428 123.02C278.408 116.35 280.308 110.86 284.228 106.22C288.868 100.73 295.228 97.97 304.248 97.5C317.748 96.81 328.939 85.12 329.199 71.45C329.239 69.1 328.698 67.39 327.548 66.2C326.408 65.05 324.728 64.47 322.438 64.45Z" fill="#3E4750"/>
<path d="M1271.14 71.2599C1236.42 50.5399 1191.34 57.4899 1163.94 87.7799C1145.71 107.94 1138.28 131.54 1141.87 157.92C1145.27 182.9 1157.81 203.07 1179.16 217.88C1193.47 227.81 1210.56 233.01 1227.94 233.01C1234.25 233.01 1240.6 232.32 1246.87 230.93C1270.37 225.69 1290.67 210.94 1302.57 190.44C1304.74 186.71 1304 183.66 1300.39 181.38C1288.47 173.84 1275.57 175.13 1265 184.92C1253.56 195.52 1239.05 200.79 1224.15 199.77C1209.29 198.75 1195.68 191.57 1185.84 179.56C1181.71 174.52 1178.77 169.06 1176.87 162.9H1215.83C1246.24 162.9 1276.65 162.9 1307.07 162.9C1312.62 162.9 1314.69 160.86 1314.7 155.37C1314.7 154.43 1314.71 153.49 1314.72 152.55C1314.74 149.88 1314.76 147.12 1314.65 144.39C1313.28 112.27 1298.65 87.6699 1271.14 71.2599ZM1223.58 92.6399C1252.87 90.3899 1273.89 112.15 1278.67 129.59H1177.13C1181.03 113.18 1200.47 94.4099 1223.58 92.6399Z" fill="#3E4750"/>
<path d="M1118.13 7.47984C1116.86 6.30984 1115.04 5.85986 1112.38 6.05986C1097.47 7.19986 1087.02 18.3999 1086.96 33.2999C1086.9 48.5599 1086.91 64.0799 1086.92 79.0899C1086.93 85.5799 1086.93 92.0799 1086.93 98.5699V100.36H981.068V75.9198C981.068 71.6398 981.078 67.3699 981.078 63.0899C981.098 53.4999 981.109 43.5799 981.039 33.8199C980.929 19.0699 971.228 7.96988 956.888 6.19988C953.258 5.74988 951.188 6.08985 949.748 7.35985C947.968 8.92985 947.728 11.7199 947.728 14.2399V219.6L947.718 220.19C947.708 220.74 947.708 221.29 947.748 221.83C947.888 223.82 948.688 225.51 949.998 226.58C950.968 227.37 952.158 227.78 953.468 227.78C953.748 227.78 954.038 227.76 954.338 227.72L954.478 227.7C958.048 227.23 961.728 226.74 965.018 225.24C975.678 220.38 981.078 211.75 981.068 199.61C981.048 184.6 981.049 169.6 981.059 154.59V133.71H1086.92L1086.91 154.92C1086.9 170.08 1086.89 185.25 1086.94 200.41C1086.99 214.75 1096.84 225.9 1110.91 227.52C1113.58 227.83 1116.29 227.9 1118.02 226.36C1119.74 224.82 1119.98 222.13 1119.98 219.44V58.2499C1119.98 43.1699 1119.98 28.0899 1119.97 13.0099C1119.98 10.4099 1119.39 8.64984 1118.13 7.47984Z" fill="#3E4750"/>
<path d="M1500.3 134.84C1497.34 111.96 1485.53 91.5599 1467.03 77.3799C1448.53 63.1999 1425.74 57.0999 1402.87 60.1899C1378.59 63.4799 1356.68 76.9599 1342.77 97.1899C1329 117.22 1324.28 142.2 1329.82 165.73C1336.42 193.74 1355.36 215.97 1381.8 226.71C1392.42 231.02 1403.45 233.16 1414.41 233.16C1430.5 233.16 1446.43 228.56 1460.65 219.5C1463.28 217.82 1465.84 215.95 1468.32 214.14C1469.11 213.57 1469.9 212.99 1470.69 212.42C1470.7 212.45 1470.72 212.48 1470.73 212.5C1474.92 221.22 1481.99 226.36 1491.75 227.8C1495.22 228.31 1497.45 227.95 1498.98 226.62C1500.51 225.3 1501.2 223.15 1501.2 219.66L1501.21 202.38C1501.22 184.48 1501.23 165.96 1501.17 147.75C1501.15 143.49 1500.86 139.15 1500.3 134.84ZM1467.86 146.25C1467.86 175.77 1443.9 199.81 1414.45 199.85C1414.43 199.85 1414.41 199.85 1414.38 199.85C1400.1 199.85 1386.65 194.27 1376.51 184.14C1366.34 173.98 1360.74 160.5 1360.75 146.17C1360.75 131.89 1366.36 118.43 1376.55 108.27C1386.72 98.1299 1400.16 92.5498 1414.42 92.5498C1414.46 92.5498 1414.5 92.5498 1414.54 92.5498C1443.94 92.6098 1467.87 116.7 1467.86 146.25Z" fill="#3E4750"/>
<path d="M1837.77 132.61C1837.64 111.89 1829.65 93.99 1814.01 79.4C1791.29 58.2 1758.65 53.45 1730.86 67.32C1728.64 68.43 1726.52 69.68 1724.27 71.01C1723.86 71.25 1723.44 71.5 1723.02 71.74V70.75C1723.01 67.07 1723.03 63.39 1723.04 59.7C1723.07 51.44 1723.11 42.89 1722.84 34.49C1722.4 20.98 1710.34 9.52999 1696.51 9.48999C1696.5 9.48999 1696.49 9.48999 1696.48 9.48999C1692.37 9.48999 1690.09 11.66 1689.89 15.78C1689.86 16.33 1689.87 16.89 1689.87 17.44L1689.88 219.61V220.12C1689.87 220.96 1689.87 221.83 1689.98 222.71C1690.38 225.77 1692.38 227.67 1695.47 227.92C1695.83 227.95 1696.2 227.96 1696.58 227.96C1697.49 227.96 1698.47 227.88 1699.51 227.71C1713.72 225.45 1722.95 214.61 1723.01 200.09C1723.06 188.81 1723.05 177.53 1723.04 166.25C1723.03 158.88 1723.03 151.52 1723.04 144.15C1723.04 143.11 1723.04 142.07 1723.03 141.03C1723.01 137.27 1722.99 133.39 1723.29 129.62C1724.39 115.56 1732.75 103.33 1745.64 96.89C1758.46 90.49 1773.17 91.16 1784.98 98.67C1797.95 106.93 1804.55 118.9 1804.57 134.28C1804.58 141.64 1804.57 148.99 1804.56 156.35C1804.54 171.47 1804.52 187.1 1804.72 202.48C1804.9 215.95 1816.76 227.61 1830.62 227.94C1833.05 228 1834.82 227.45 1836.03 226.27C1837.22 225.11 1837.8 223.39 1837.8 221.04C1837.8 213.01 1837.81 204.99 1837.82 196.96C1837.87 175.88 1837.9 154.07 1837.77 132.61Z" fill="#3E4750"/>
<path d="M1670.11 64.26C1664.68 64.23 1659.25 64.24 1653.82 64.24H1644.56V49.66C1644.56 38.58 1644.56 27.49 1644.55 16.41C1644.55 14.01 1643.96 12.27 1642.77 11.11C1641.57 9.95 1639.83 9.42001 1637.41 9.49001C1624.14 9.88001 1612.94 20.14 1611.92 32.83C1611.37 39.63 1611.41 46.55 1611.45 53.25C1611.47 56.23 1611.49 59.22 1611.45 62.19C1611.44 62.85 1611.44 63.5 1611.45 64.23H1607.7C1603.75 64.22 1599.9 64.22 1596.06 64.25C1592.13 64.29 1589.75 66.54 1589.69 70.27C1589.58 77.1 1589.58 84.19 1589.68 91.35C1589.73 95.11 1592.09 97.38 1595.99 97.44C1599.06 97.48 1602.13 97.47 1605.2 97.47L1611.44 97.46V168.93C1611.44 172.11 1611.43 175.29 1611.42 178.46C1611.4 185.64 1611.38 193.06 1611.46 200.37C1611.62 214.94 1621.25 225.87 1635.41 227.58C1636.4 227.7 1637.27 227.76 1638.05 227.76C1640.11 227.76 1641.48 227.33 1642.52 226.4C1644.3 224.83 1644.54 222.04 1644.54 219.52V97.44H1645.52C1647.07 97.45 1648.5 97.45 1649.93 97.43C1664.66 97.19 1676.16 85.9 1676.68 71.16C1676.76 68.92 1676.22 67.19 1675.09 66.01C1673.98 64.87 1672.3 64.27 1670.11 64.26Z" fill="#3E4750"/>
<path d="M1540.74 9.84018C1538.2 9.44018 1535.35 9.23015 1533.5 10.8101C1531.67 12.3701 1531.43 15.1302 1531.43 17.6302V127.04C1531.43 150.76 1531.43 174.49 1531.43 198.21V198.6C1531.43 200.07 1531.43 201.59 1531.54 203.1C1532.52 216.41 1543.66 227.31 1556.91 227.93C1557.19 227.94 1557.45 227.95 1557.71 227.95C1559.99 227.95 1561.59 227.45 1562.69 226.4C1563.92 225.22 1564.5 223.4 1564.5 220.66V191.17C1564.51 139.92 1564.51 88.6601 1564.49 37.4101C1564.48 22.5101 1555.6 12.2002 1540.74 9.84018Z" fill="#3E4750"/>
<path d="M417.479 59.4501C394.389 59.3101 372.529 68.3701 356.039 84.8001C339.489 101.23 330.409 123.07 330.379 146.21C330.379 169.33 339.439 191.08 355.869 207.48C372.299 223.88 394.109 232.91 417.259 232.91C417.259 232.91 417.259 232.91 417.289 232.91C465.019 232.88 503.879 194.04 503.939 146.32C503.949 98.6301 465.199 59.6501 417.479 59.4501ZM460.539 138.01C460.449 140.72 459.999 143.35 459.109 145.9C458.539 147.53 457.939 149.16 457.139 150.67C455.999 152.9 454.769 155.1 453.369 157.19C450.259 161.91 446.569 166.19 442.709 170.31C438.769 174.51 434.649 178.51 430.249 182.26C426.589 185.37 422.879 188.38 419.159 191.43C418.929 191.63 418.649 191.8 418.359 192C417.499 192.6 416.619 192.51 415.819 191.89C413.619 190.15 411.389 188.43 409.219 186.63C406.589 184.46 403.989 182.23 401.449 179.94C399.219 177.91 397.079 175.82 394.909 173.71C390.679 169.54 386.789 165.08 383.189 160.36C381.079 157.59 379.129 154.7 377.559 151.59C376.389 149.22 375.389 146.82 374.699 144.27C374.069 141.87 373.699 139.41 373.759 136.75C373.669 134.38 374.049 131.89 374.699 129.49C375.469 126.6 376.669 123.89 378.389 121.4C379.819 119.37 381.479 117.51 383.479 116.03C385.879 114.23 388.539 112.97 391.419 112.17C393.879 111.48 396.359 111.31 398.879 111.46C401.199 111.57 403.449 112.12 405.619 112.97C408.759 114.17 411.509 115.97 413.759 118.4C414.849 119.57 415.729 120.86 416.699 122.12C417.039 122.58 417.269 122.61 417.589 122.12C419.099 119.8 420.879 117.8 423.079 116.12C425.249 114.46 427.649 113.23 430.249 112.4C433.339 111.46 436.479 111.17 439.679 111.54C441.739 111.8 443.709 112.28 445.619 113.05C448.619 114.28 451.249 116.05 453.509 118.39C455.079 120.02 456.399 121.88 457.419 123.88C458.189 125.39 458.759 127.02 459.339 128.65C460.369 131.7 460.659 134.84 460.539 138.01Z" fill="#FD8A0A"/>
</svg>
