<svg xmlns="http://www.w3.org/2000/svg" viewBox="0 0 3000 901"><path fill="#006a50" d="M462.3 395.5a.23.23 0 0 1 .17.39l-97.66 105.23a.75.75 0 0 0-.12.84q10.04 19.75 22.76 37.06c10.94 14.88 24.79 29.07 41.77 36.74q18.73 8.47 39.01 1.45 13.35-4.62 24.17-13.06c13.71-10.71 25.09-24.39 31.61-40.47a6.81 6.78 56.2 0 0 .5-2.56V395.81a.56.56 0 0 1 .56-.56h55.62a.32.31 90 0 1 .31.32v33.63a.32.32 0 0 0 .6.16c10.78-19.32 27.91-34.69 50.14-38.63q10.27-1.81 22.01-.84c27.97 2.33 50.57 17.47 60.3 44.11q6.18 16.92 6.36 36.13.13 13.17.11 72.61 0 4.8 2.33 11.97 6.52 20.11 27.29 23.87c13.13 2.38 24.07-1.97 34.93-8.47a.5.5 0 0 0 .21-.62q-8.34-21.11-10.62-44.63-1.44-14.83-1.05-25.26c2.33-62.45 44.98-115.58 111.88-109.62q26.01 2.32 45.07 15.91c17.5 12.47 27.05 33.48 27.88 55.17q1.12 29.17-15.16 53.81c-11.8 17.86-29.22 31.7-47.07 43.35q-22.13 14.45-30.28 19.79a.32.32 0 0 0 .07.57c8.48 3.16 17.07 5.25 26.49 5.12 18.97-.27 38.4-8.51 54.99-18.75q27.33-16.88 48.94-38.06 10.13-9.92 15.84-15.72a2.61 2.6 67.4 0 0 .75-1.83V395.87a.62.61 90 0 1 .61-.62h58.29a.35.35 0 0 1 .35.35q-.04 147.62.03 149.64c.91 26.47 29.45 44.75 53.66 32.22q15.25-7.89 20.09-24.28 1.3-4.43 1.26-13.48-.08-15.8-.04-143.88a.33.32 0 0 1 .33-.32H1206a.49.49 0 0 1 .49.49q.05 133.52-.03 139.71-.18 12.55 1.42 17.97c6.76 22.84 32.29 34.76 53.51 23.45q14.06-7.49 18.81-23.16 1.42-4.67 1.37-14.56-.13-21.51-.06-143.52a.66.66 0 0 1 .66-.66q33.23.14 54.71-.08c18.61-.18 36.87-1.07 54.29-6.74 7.55-2.46 16.34-5.7 23.93-9.69q10.89-5.71 19.73-10.78a.85.83 75.3 0 0 .42-.73v-90.85a.8.79-4.7 0 1 .67-.78l55.16-9.19a.57.57 0 0 1 .67.56v162.78a.16.16 0 0 0 .3.08c3.03-5.29 7.19-13.6 11.61-18.6 16.84-19.07 44.92-24.58 69.34-20.16 39.34 7.13 57.1 39.16 58.16 76.78q.15 5.55.07 67.91c-.01 13.11 2.9 30.06 14.03 38.24 14.79 10.87 36.63 5.47 50.52-3.93a.49.48-27.6 0 0 .19-.59c-8.99-22.27-12.53-47.86-11.57-71.64 1.19-29.47 12.45-59.95 33.68-80.93q22.08-21.83 53.94-26.32c24.86-3.51 53.03 1.9 72.28 17.72 17.57 14.45 25.95 37.33 24.87 60.22-2.01 42.57-31.32 69.89-64.82 91.6q-22.81 14.79-27.59 17.83a.43.43 0 0 0 .1.77l6.06 1.93c13.03 4.16 26.67 3.95 40.09.1q16.12-4.61 30.63-13.09 31.12-18.2 56.45-43.94a2.36 2.33 66.3 0 0 .68-1.77c-1.3-30.9 4.43-64.48 21.36-90.78q15.55-24.15 42.99-34.99 24.1-9.52 47.9-5.94c11.85 1.78 22.12 7.1 30.98 15.54l5.14 4.92a.22.21-68.3 0 0 .36-.16v-15.29a.67.67 0 0 1 .56-.66l57.79-9.63a.36.35 85.3 0 1 .41.36q-.04 114.76.02 154.19.02 7.43 2.97 15.51c5.52 15.05 18.19 23.85 33.97 24.28 19.79.54 33.64-12.26 37.67-31.04q1.14-5.31 1.13-17.65-.04-59.4-.01-254.42a.62.61 85.7 0 1 .52-.61l55.18-9.2a.47.46 85.3 0 1 .54.46q-.01 126.24.01 276.42 0 4.41 2.21 10.78c5.12 14.8 16.92 24.18 32.64 25.09 20.49 1.19 34.49-10.67 39.26-29.96q1.34-5.4 1.15-14.91-.04-2.02-.03-216.26a.63.63 0 0 1 .52-.62l55.29-9.21a.39.39 0 0 1 .45.39v86.4a.31.31 0 0 0 .31.31h44.46a.65.64 86.5 0 1 .64.57l5.84 53.24a.4.4 0 0 1-.4.44h-50.49a.36.35 0 0 0-.36.35q-.01 94.21.01 95.65c.27 17.22 6.39 31.06 25.2 33.81q6.77.99 13.15.31c24.03-2.54 47.66-13.56 67.66-27.52a1.14 1.14 0 0 0 .48-.93V276.34a.79.78-4.8 0 1 .66-.77l55.34-9.22a.43.43 0 0 1 .5.42v162.9a.18.18 0 0 0 .34.09q1.41-2.56 5.84-10.24c5.53-9.57 12.91-16.53 22.69-21.42q23.37-11.69 50.12-7.41 42.76 6.84 56.02 48.73c3.66 11.59 4.52 23.85 4.51 38.03q-.04 28.79-.01 60.3 0 2.25.72 9c1.73 16.06 10.77 29.81 27.94 31.5q3.59.35 11.59-1.07 8.67-1.54 18.06-3.4a.61.61 0 0 1 .71.47l10.94 49.65a.58.58 0 0 1-.37.67q-22.59 8.17-47.14 9.15c-38.83 1.55-71.88-23-79.79-61.29q-1.45-7.03-1.45-21.95 0-60.83.01-61.19c.2-12.14-.77-22.05-6.88-31.56q-5.28-8.22-14.46-12.02c-23.65-9.81-48.85 2.01-55.79 26.81q-1.4 5-1.39 18.08.09 87.96.02 139.81a.59.59 0 0 1-.59.59h-57.7a.43.43 0 0 1-.43-.43v-16.95a.4.4 0 0 0-.58-.36l-12.6 6.28q-23.01 11.49-52.32 14.78c-19.11 2.14-40.79-.52-57.76-10.24-5.32-3.05-10.22-8.34-15.36-13.2a.5.5 0 0 0-.76.09q-1.37 2.11-3.09 3.8c-13.58 13.33-33.34 19.76-52.55 20.74-22.25 1.12-46.25-4.43-64.22-18.02q-3.75-2.84-6.38-6.24a.69.69 0 0 0-1.04-.06c-14.32 14.55-31.43 22.07-52.08 23.48-19.35 1.32-39.34.23-57.67-5.74q-17.68-5.75-30.82-18.77a.76.76 0 0 0-.88-.14q-2.61 1.34-11.49 6.11-16.21 8.73-32.72 14-31.73 10.13-63.03-1.27-36.65-13.35-51.25-49.58a.58.57 59 0 0-.9-.23c-11.49 9.53-25.03 21.06-38.38 29.81-26.19 17.16-58.62 27.42-90.35 26.37q-32.14-1.07-58.84-18.98c-2.95-1.97-6.17-4.91-8.9-7.08a.83.82-43.3 0 0-.99-.02c-15.38 11.19-31.2 20.67-50.1 24.24q-26.58 5.01-52.25-5.24c-26.5-10.59-42.79-31.89-47.36-59.87q-1.23-7.53-1.16-19.62.11-16.46.04-65.65-.02-13.94-6.57-24.81c-7.88-13.08-25.19-17.96-39.5-15.2-15.38 2.98-26.61 14.44-31.03 29.45q-1.63 5.55-1.41 18.22.08 4.84.03 139.77a.57.56-89.5 0 1-.56.56h-57.55a.63.63 0 0 1-.63-.63V427.5a.32.32 0 0 0-.48-.27q-12.97 7.48-29.57 11.73c-20.75 5.32-41.82 7.11-63.43 7.35a1.01 1.01 0 0 0-1 1.01q-.09 82.55.04 97.6.13 16.82-1.64 25.5c-7.61 37.34-33.43 59.33-70.66 64.15q-14.57 1.88-27.99.11c-28.13-3.72-48.87-19.62-65.38-42.12a.56.56 0 0 0-.93.05c-20.42 34.9-53.26 47.72-92.35 41.28-32.41-5.34-58.43-26.03-66.31-58.67a.46.46 0 0 0-.74-.24q-9.78 8.37-19.43 16.41c-31.32 26.12-67.69 43.2-108.7 43.92-2.4.04-4.91-.25-8.61-.46-23.31-1.28-47.27-9.93-64.61-25.91a.58.57-41.4 0 0-.72-.04c-12.76 9.14-25.29 17.29-40.78 22.02q-31.29 9.58-62.41-2.98c-25.89-10.45-41.73-31.36-46.64-58.44q-1.53-8.41-1.47-25.75.1-29.51.04-64.5-.01-2.94-1.33-8.72c-4.46-19.5-20.41-29.33-39.75-28.12-17.62 1.1-31.56 13.68-36.06 31.05q-1.34 5.18-1.11 14.68.04 1.84.01 142.56a.3.3 0 0 1-.3.3h-58.05a.4.39-90 0 1-.39-.4v-27.15a.3.3 0 0 0-.5-.23q-9.24 7.97-17.44 13.6c-24.53 16.84-56.41 22.26-85.2 15.34-28.69-6.9-55.12-26.61-73.2-50.41-10.64-14.02-19.59-29.46-25.41-46.15a.26.26 0 0 0-.5.09v93.22a.59.58-90 0 1-.58.59h-55.34a.33.33 0 0 1-.33-.33V276.25a.7.69 85.7 0 1 .59-.69l55.23-9.21a.37.37 0 0 1 .43.36v203.62a.26.26 0 0 0 .45.17l67.53-74.66a1.04 1.04 0 0 1 .77-.34h71.3Zm376.74 143.8a.33.33 0 0 0 .47.11q8.39-5.7 21.51-14.64c14.48-9.87 28.21-20.84 37.24-35.71 6.5-10.7 9.03-24.1 2.54-34.89-9.01-14.99-27.66-19.59-43.04-10.92-20.41 11.51-28.15 31.85-27.17 54.74q.89 20.59 6.74 37.71.48 1.4 1.71 3.6Zm910.42.01a.33.33 0 0 0 .47.11q8.39-5.7 21.51-14.65c14.48-9.87 28.21-20.84 37.24-35.71 6.5-10.7 9.03-24.1 2.53-34.89-9.01-14.99-27.66-19.59-43.04-10.92-20.41 11.52-28.15 31.86-27.16 54.75q.89 20.59 6.74 37.71.48 1.4 1.71 3.6Zm264.92 37.44q1.84 0 5.91-.4c26.41-2.58 36.59-23.66 38.46-47.59q1.37-17.53-.37-34.68c-2.6-25.66-13.87-48.54-43.63-47.59q-.14.01-.32.01-.17 0-.31-.01c-29.76-.97-41.05 21.9-43.67 47.56q-1.75 17.15-.39 34.68c1.85 23.93 12.01 45.02 38.42 47.62q4.07.4 5.9.4Z"/></svg>