<?xml version="1.0" encoding="UTF-8" standalone="no"?>
<!DOCTYPE svg PUBLIC "-//W3C//DTD SVG 1.1//EN" "http://www.w3.org/Graphics/SVG/1.1/DTD/svg11.dtd">
<svg xmlns="http://www.w3.org/2000/svg" version="1.1" viewBox="0.00 0.00 1024.00 225.00">
<path fill="#1b5543" d="
  M 169.36 0.00
  L 169.32 108.67
  A 0.65 0.64 81.5 0 1 168.87 109.29
  L 136.11 119.78
  A 1.15 1.15 0.0 0 1 134.81 119.33
  L 75.58 30.78
  A 0.79 0.79 0.0 0 1 75.99 29.59
  L 168.68 0.00
  L 169.36 0.00
  Z"
/>
<path fill="#1b5543" d="
  M 184.75 0.00
  L 277.84 29.67
  A 0.65 0.65 0.0 0 1 278.18 30.65
  L 218.73 119.51
  A 0.81 0.80 -64.1 0 1 217.81 119.83
  L 184.64 109.22
  A 0.66 0.65 -81.7 0 1 184.18 108.59
  L 184.16 0.00
  L 184.75 0.00
  Z"
/>
<path fill="#1b5543" d="
  M 128.02 127.92
  L 109.30 153.55
  A 0.53 0.53 0.0 0 1 108.71 153.74
  L 4.15 120.30
  A 0.53 0.53 0.0 0 1 3.88 119.49
  L 63.53 37.85
  A 0.53 0.53 0.0 0 1 64.39 37.86
  L 128.03 127.30
  A 0.53 0.53 0.0 0 1 128.02 127.92
  Z"
/>
<path fill="#1b5543" d="
  M 244.39 153.57
  L 225.66 127.93
  A 0.53 0.53 0.0 0 1 225.65 127.31
  L 289.27 37.86
  A 0.53 0.53 0.0 0 1 290.13 37.85
  L 349.80 119.47
  A 0.53 0.53 0.0 0 1 349.53 120.28
  L 244.98 153.76
  A 0.53 0.53 0.0 0 1 244.39 153.57
  Z"
/>
<path fill="#1b5543" d="
  M 720.07 180.04
  A 0.42 0.42 0.0 0 0 719.32 179.80
  C 711.06 190.45 699.57 195.25 686.10 194.81
  C 666.91 194.18 650.19 181.95 643.77 163.74
  Q 635.68 140.75 645.41 118.39
  C 652.21 102.77 666.15 92.66 683.09 90.53
  C 695.22 89.00 707.73 91.00 717.96 97.52
  A 0.44 0.44 0.0 0 0 718.64 97.15
  Q 718.60 87.99 718.74 80.29
  C 718.87 72.75 713.60 71.01 708.34 67.45
  Q 705.58 65.58 706.29 62.42
  A 1.70 1.68 74.3 0 1 706.74 61.61
  Q 708.91 59.44 710.25 58.76
  Q 719.91 53.82 730.99 52.43
  C 739.35 51.38 742.10 55.37 742.09 63.27
  Q 742.02 168.32 742.11 172.88
  Q 742.17 176.17 745.42 179.06
  C 747.00 180.47 750.45 181.39 752.05 183.23
  C 755.71 187.41 751.44 192.16 746.96 193.72
  C 736.46 197.39 720.61 193.74 720.07 180.04
  Z
  M 684.11 101.42
  C 675.47 103.81 670.14 111.30 668.02 119.51
  C 663.82 135.72 666.03 155.28 675.46 169.07
  C 680.86 176.98 690.06 183.07 699.80 181.02
  C 711.69 178.52 717.75 167.07 718.50 155.48
  Q 718.78 151.22 718.60 135.05
  C 718.41 117.60 704.74 95.72 684.11 101.42
  Z"
/>
<path fill="#1b5543" d="
  M 430.20 154.81
  C 432.67 148.02 441.44 146.50 446.96 149.88
  C 452.05 152.99 452.39 158.57 452.61 163.77
  C 453.12 175.71 464.09 181.82 475.01 182.71
  C 483.42 183.39 491.09 183.05 497.81 178.73
  C 507.97 172.20 510.59 156.80 501.45 148.29
  Q 497.07 144.22 491.52 141.48
  C 479.68 135.63 463.63 129.30 451.42 120.38
  Q 438.79 111.15 436.35 96.92
  C 432.32 73.39 450.06 58.76 471.16 55.13
  C 491.14 51.70 523.26 57.63 530.08 80.93
  C 531.73 86.55 531.26 93.95 526.92 98.11
  C 522.87 101.99 516.20 101.97 511.86 98.66
  C 505.03 93.47 509.02 84.86 505.79 78.59
  C 500.54 68.42 490.08 65.63 479.24 66.24
  C 470.44 66.73 461.39 72.21 460.77 81.68
  C 459.89 95.19 469.70 101.70 480.08 107.43
  C 499.14 117.97 530.51 124.57 532.72 152.01
  Q 534.47 173.80 516.11 185.78
  Q 505.88 192.46 491.76 194.24
  C 473.13 196.59 452.09 194.36 437.68 181.34
  C 430.41 174.78 426.80 164.13 430.20 154.81
  Z"
/>
<path fill="#1b5543" d="
  M 886.82 108.60
  A 0.27 0.27 0.0 0 0 887.30 108.58
  C 892.02 98.47 901.35 89.49 913.12 90.32
  C 921.19 90.88 926.04 95.64 925.42 104.00
  C 925.03 109.37 922.29 113.44 917.16 114.99
  C 911.07 116.82 905.45 114.33 900.01 114.46
  C 889.16 114.71 887.78 127.19 887.72 136.01
  Q 887.58 153.79 887.71 172.50
  C 887.75 178.13 892.77 180.29 897.15 183.29
  A 2.66 2.56 -1.1 0 1 897.71 183.81
  C 901.25 188.36 897.34 192.07 892.41 192.11
  Q 875.02 192.25 859.51 192.11
  C 857.66 192.10 854.43 191.08 853.46 189.06
  C 851.05 184.03 857.99 181.40 860.90 179.16
  Q 864.41 176.45 864.40 171.53
  Q 864.29 130.64 864.38 116.53
  Q 864.39 115.15 862.85 112.48
  A 2.62 2.53 87.3 0 0 861.78 111.47
  Q 857.62 109.39 854.65 107.44
  Q 851.56 105.42 851.90 102.09
  A 1.82 1.81 -23.0 0 1 852.30 101.11
  Q 853.86 99.11 855.08 98.31
  C 861.36 94.20 877.38 87.01 884.62 92.37
  A 2.05 1.98 7.1 0 1 885.24 93.14
  C 887.20 97.38 886.67 103.07 886.54 107.73
  Q 886.53 108.12 886.82 108.60
  Z"
/>
<path fill="#1b5543" d="
  M 989.39 176.56
  C 979.96 190.84 967.73 195.78 951.01 195.01
  C 939.76 194.49 929.29 188.49 926.23 177.47
  C 922.74 164.94 927.75 155.32 938.48 148.46
  C 948.38 142.13 957.21 139.15 971.17 133.68
  C 977.18 131.33 985.20 127.60 987.00 120.46
  C 988.51 114.50 987.50 107.05 982.62 102.88
  C 977.66 98.65 969.15 98.78 963.39 101.42
  C 955.38 105.10 952.01 111.89 947.99 119.72
  C 945.55 124.47 940.52 127.00 935.32 125.24
  C 926.49 122.24 927.61 112.45 932.50 106.24
  C 944.85 90.55 970.40 87.85 988.45 92.03
  C 1008.44 96.67 1012.38 114.09 1012.25 132.05
  Q 1012.17 144.31 1012.25 171.74
  C 1012.27 178.72 1016.94 179.34 1021.69 182.58
  A 2.67 2.48 86.9 0 1 1022.33 183.20
  Q 1024.44 186.16 1022.80 189.29
  C 1019.84 194.92 1010.39 195.66 1004.99 194.82
  C 995.57 193.35 989.43 186.67 990.22 176.85
  A 0.46 0.45 64.1 0 0 989.39 176.56
  Z
  M 989.42 139.18
  A 0.34 0.33 79.0 0 0 988.97 138.87
  Q 977.16 143.43 966.30 147.80
  C 958.12 151.09 948.90 156.23 948.87 166.10
  C 948.83 178.69 962.81 181.12 972.01 177.95
  C 983.50 174.00 989.15 162.89 989.37 151.19
  Q 989.47 145.98 989.42 139.18
  Z"
/>
<path fill="#1b5543" d="
  M 565.28 141.70
  C 566.61 159.57 578.56 174.55 597.00 176.31
  Q 604.27 177.01 611.15 174.37
  C 616.37 172.35 620.49 168.51 624.89 164.38
  C 628.40 161.08 634.66 162.20 633.70 168.02
  Q 633.18 171.14 631.57 174.08
  C 624.21 187.43 610.37 194.40 595.28 194.82
  C 571.27 195.51 549.21 183.23 542.85 159.15
  C 534.91 129.14 550.10 96.50 582.77 91.23
  C 599.81 88.48 618.94 92.58 628.34 108.06
  C 632.44 114.80 634.29 123.78 633.65 131.58
  C 632.92 140.56 626.22 141.38 618.01 141.34
  Q 601.07 141.25 565.64 141.30
  A 0.37 0.36 87.8 0 0 565.28 141.70
  Z
  M 565.43 131.75
  L 608.46 131.86
  A 0.80 0.79 3.8 0 0 609.25 131.17
  C 610.85 119.14 607.98 103.04 593.17 100.90
  C 574.77 98.22 565.83 115.85 565.02 131.32
  A 0.41 0.41 0.0 0 0 565.43 131.75
  Z"
/>
<path fill="#1b5543" d="
  M 777.74 141.71
  C 779.08 159.58 791.03 174.55 809.47 176.31
  Q 816.74 177.01 823.62 174.36
  C 828.84 172.34 832.96 168.50 837.36 164.37
  C 840.87 161.07 847.13 162.18 846.17 168.00
  Q 845.65 171.12 844.04 174.06
  C 836.69 187.42 822.85 194.39 807.76 194.82
  C 783.75 195.52 761.68 183.25 755.31 159.17
  C 747.36 129.16 762.54 96.51 795.21 91.23
  C 812.25 88.47 831.38 92.57 840.79 108.04
  C 844.89 114.78 846.74 123.76 846.11 131.56
  C 845.38 140.54 838.68 141.37 830.47 141.33
  Q 813.53 141.25 778.10 141.31
  A 0.37 0.36 87.8 0 0 777.74 141.71
  Z
  M 777.96 131.81
  L 820.97 131.81
  A 0.80 0.79 3.7 0 0 821.76 131.12
  C 823.33 119.09 820.42 103.01 805.61 100.90
  C 787.21 98.27 778.32 115.92 777.55 131.38
  A 0.41 0.41 0.0 0 0 777.96 131.81
  Z"
/>
<path fill="#1b5543" d="
  M 0.94 225.00
  L 0.00 225.00
  L 0.00 131.08
  L 104.88 164.69
  A 0.84 0.82 -81.6 0 1 105.46 165.49
  L 105.46 198.25
  A 0.75 0.75 0.0 0 1 104.89 198.98
  L 0.94 225.00
  Z"
/>
<path fill="#1b5543" d="
  M 353.78 225.00
  L 352.79 225.00
  L 248.93 199.11
  A 0.80 0.80 0.0 0 1 248.32 198.33
  L 248.32 165.40
  A 0.78 0.77 81.3 0 1 248.86 164.66
  L 353.17 131.26
  A 0.46 0.46 0.0 0 1 353.77 131.70
  L 353.78 225.00
  Z"
/>
</svg>
