<?xml version="1.0" encoding="UTF-8"?>
<svg id="Layer_1" xmlns="http://www.w3.org/2000/svg" version="1.1" viewBox="0 0 695.1 596.3">
  <!-- Generator: Adobe Illustrator 29.1.0, SVG Export Plug-In . SVG Version: 2.1.0 Build 142)  -->
  <defs>
    <style>
      .st0 {
        opacity: 0;
      }

      .st0, .st1 {
        fill: #6366f1;
      }
    </style>
  </defs>
  <rect class="st0" width="695.1" height="596.3"/>
  <g>
    <path class="st1" d="M219.6,133.1c.3-.3.4-.8.1-1.1,0,0,0,0,0,0-1.8-1.9-4.2-4.2-7-6.9-11.9-11.4-20.8-31-18.9-47.6.3-2.6,1.1-4.9,2.3-6.8.6-.9,1.8-1.2,2.8-.7,3.5,2.1,6.5,4.9,10.1,8.6,7,7.1,15.9,11.1,25.4,15.4,10.4,4.8,20.8,8.3,31,10.6.9.2,1.8,0,2.6-.3,4.1-2,7.6-3.6,10.4-4.8,27.7-11.8,56.4-16,86.2-12.8,6.4.7,12.9,1.9,19.5,3.5,14,3.4,26,7.4,38.4,14.2.5.3,1,.3,1.6.2,15.3-3.2,28.7-9.1,42.6-16,8.8-4.3,14.8-9.6,22.2-16.8,1.2-1.2,2.5-2,3.9-2.4.8-.2,1.6,0,2.1.6,3.2,3.9,3.6,10.8,3,15.6-1.5,10.9-5.1,20.7-10.9,29.4-4.1,6.2-8.5,10.4-14.1,15.7-.6.5-.6,1.5,0,2,2.9,2.9,5.9,5.2,8.7,8.5,4,4.7,7.1,8.9,9.2,12.7,17.1,29.9,22.6,61.7,16.4,95.4-.8,4.2-1.9,8-3.3,11.3-.2.5-.2,1,0,1.5,5.4,9.6,8.7,20.2,10.1,31.8.6,4.9.9,8.8,1,11.5,1.3,27.1-6.5,54.7-19.1,78.7-2.7,5.2-5.1,9.6-7.1,13.2-4.6,8.4-11.3,17.5-16.7,25.3-4.3,6.1-11.4,12.6-16.5,18.1-6.8,7.3-13.9,13.8-21.4,21-8.9,8.6-19.2,16.7-28.9,25.2-17.2,15-36.2,28.2-55.9,39.6-.9.5-2.1.7-3.1.3-1.6-.5-3.2-1.4-4.8-2.5-10.5-7.6-20.8-15.2-30.9-22.5-11.4-8.3-24.1-20.4-34.4-29.2-18.3-15.5-35.6-32.7-51.8-51.5-4.2-4.9-8.2-10.2-12-15.8-8.8-13.2-16.2-27.2-22.2-42.2-7.3-18.1-10.7-36.6-10.3-55.4.4-15,3.6-29.5,9.5-43.3.3-.6.3-1.3,0-1.9-4.1-9.5-6.2-21-6.5-31.9-.3-18.7,2.1-36.1,7.4-52.2,2.3-7.1,5.9-15.1,11-24,4.7-8.3,10.8-15.4,18.3-21.1ZM344.3,384.6c.3-.2.5-.6.6-1,1.4-4.3,4.1-11,8.2-20.1,4.2-9.4,9.5-18.2,15.9-26.3,21.7-27.7,50.5-47.6,80.7-66.5,4.6-2.9,9.1-6.4,13.7-10.5,11.9-10.8,18.9-24,21.1-39.4.4-2.9.6-6.7.7-11.5,0-9.4-.4-17.9-2.8-24.9-3.4-9.8-8.2-18.3-14.4-25.6-3.4-3.9-8.4-8.2-15.2-12.7-6.6-4.4-14.9-6.3-22.3-6.2-25.3.4-49.4,12.6-63.1,34.2-2.5,3.9-4.2,7.2-5.1,9.9-1.5,4.3-2.8,9-4,14.2-1.2,5-.9,11.5-.6,16.2.2,3.4,1.4,8.2,3.5,14.1.1.4,2.1,5.6,6.1,15.6.6,1.6.4,3.5-.8,5.7-3.6,6.6-7.5,13.6-11.8,20.9-2.4,4-4.6,10.8-8.6,13.3-.4.2-.9.2-1.2-.1l-2.6-2.7c0,0-.2-.2-.2-.3-6-11.4-12-21.8-18-31-1.9-3-2.6-4.7-.3-7.5,8.2-10.4,11.9-26.5,10.3-39.7-.9-7.5-3.2-15.2-6.9-23.2-4.1-8.7-10.7-16.6-19.7-23.7-11.7-9.1-24.7-14.3-39.2-15.7-14.4-1.4-25,1.4-36.4,10.6-8.6,6.9-15,14.9-19,24-3.6,8.1-7.1,16.6-7.1,25.5,0,6.4-.3,11.4.6,16.9.6,3.7,1.2,6.9,1.9,9.7,4.9,20.2,19.6,34.2,36.6,44.9,23.5,14.7,44.1,27.8,63,46,7.6,7.4,13.8,15.1,18.5,23.1,7.9,13.5,13.7,28.1,17.5,43.6,0,.2.3.4.5.3,0,0,.1,0,.2-.1ZM209.5,289c-.9,5.9-1.4,11-1.7,15.4-.6,10,.3,19.9,2.8,29.6,3.5,13.9,7.9,25.5,13,34.7,9,16.3,19.2,32.1,31.5,45.5,6,6.5,12.2,12.7,18.7,18.5,15.3,13.9,33.1,26.7,50.3,38.3.2.1.4,0,.5,0,0,0,0,0,0-.1.7-3.3,1.2-7.9,1.7-13.9.4-4.6.9-10.5.9-15.4-.2-15.8-2.3-29.9-6.1-42.3-5.6-18.4-14.9-35.5-27.6-51.2-6.9-8.4-15.1-16.3-24.7-23.5-9.4-7.2-18.9-13.5-28.5-18.9-13.6-7.8-23.8-13.4-30.4-17-.2-.1-.5,0-.6.2,0,0,0,0,0,.1ZM480.9,288.9c-14.7,8-25,15.1-43.2,26.9-11.1,7.2-21.3,15.6-30.4,25.3-4,4.3-7.9,9-11.6,14.4-10.4,15-19.9,30.2-26.9,47.6-3.2,7.9-5.1,12.7-5.7,14.4-5.3,14.5-10.1,30.4-15.6,44.9-5.2,14-9.3,25.3-12.3,33.7,0,.1,0,.3.1.3,0,0,.2,0,.2,0,6.1-3.3,12.2-7.1,18.4-11.2,12.2-8.1,23.3-16,33.4-23.9,22.6-17.5,42.3-37,58.9-59.4,14-19,24.3-39.5,30.8-61.5,1.9-6.5,3.2-12.2,3.7-17.1,1.2-11.2,1.5-22.5.7-34.2,0-.2-.2-.4-.4-.4,0,0-.1,0-.2,0Z"/>
    <ellipse class="st1" cx="275.1" cy="204.6" rx="29.7" ry="30.5" transform="translate(-66.5 175.1) rotate(-31.7)"/>
    <circle class="st1" cx="417" cy="204.8" r="30.2"/>
  </g>
</svg>